<svg id="b54c5e24-dda4-4ded-9306-f3587282a212" data-name="Layer 1" xmlns="http://www.w3.org/2000/svg" xmlns:xlink="http://www.w3.org/1999/xlink" viewBox="0 0 594.45 138.09"><defs><style>.b94300d8-1e52-4cc5-9fb6-7e5ef46d7bee{fill:url(#ad1ae265-27ca-4a34-852c-ac32a945b967);}.feb0bac3-5e40-4cca-9847-7c1d2f616118{fill:#fff;}</style><linearGradient id="ad1ae265-27ca-4a34-852c-ac32a945b967" x1="297.23" y1="98.53" x2="297.23" gradientUnits="userSpaceOnUse"><stop offset="0" stop-color="#fcee21"/><stop offset="0.23" stop-color="#f4e51c"/><stop offset="0.61" stop-color="#ddcb10"/><stop offset="1" stop-color="#bfaa00"/></linearGradient></defs><path class="b94300d8-1e52-4cc5-9fb6-7e5ef46d7bee" d="M6.46,48.47q0,3.16-3.17,3.17T0,48.47q0-3.28,3.29-3.29T6.46,48.47Zm.48-8.77C6.94,41.9,5.85,43,3.65,43S.49,41.9.49,39.7s1.05-3.28,3.16-3.28S6.94,37.51,6.94,39.7Zm.49,17.18q0,3.28-3.29,3.28T1,56.88c0-2.2,1.06-3.29,3.17-3.29S7.43,54.68,7.43,56.88ZM9.26,65q0,3.28-3.29,3.28T2.8,65c0-2.2,1.06-3.29,3.17-3.29S9.26,62.84,9.26,65Zm.48-34.23q0,3.29-3.28,3.29c-2.2,0-3.29-1.1-3.29-3.29s1.09-3.29,3.29-3.29S9.74,28.62,9.74,30.81Zm3.41,42c0,2.19-1.09,3.29-3.29,3.29S6.58,75,6.58,72.83s1.09-3.29,3.28-3.29S13.15,70.64,13.15,72.83Zm.61-50.3c0,2.19-1.09,3.29-3.29,3.29s-3.28-1.1-3.28-3.29,1.09-3.29,3.28-3.29S13.76,20.34,13.76,22.53ZM14.61,51q0,3.28-3.28,3.29c-2.12,0-3.17-1.1-3.17-3.29s1.05-3.29,3.17-3.29S14.61,48.84,14.61,51Zm.49-8.77c0,2.19-1.09,3.29-3.29,3.29s-3.16-1.1-3.16-3.29,1-3.17,3.16-3.17S15.1,40.15,15.1,42.26Zm1,17.05q0,3.28-3.29,3.29T9.5,59.31q0-3.16,3.29-3.16T16.08,59.31Zm1-25.33q0,3.29-3.17,3.29T10.6,34q0-3.16,3.28-3.17T17.05,34Zm1.22,45.31q0,3.28-3.17,3.28t-3.29-3.28c0-2.2,1.1-3.29,3.29-3.29S18.27,77.09,18.27,79.29Zm1-63.58C19.24,17.9,18.15,19,16,19s-3.16-1.1-3.16-3.29,1.05-3.17,3.16-3.17S19.24,13.6,19.24,15.71Zm.49,51.52q0,3.17-3.29,3.16t-3.29-3.16q0-3.28,3.29-3.29T19.73,67.23Zm1.22-41q0,3.28-3.29,3.28t-3.29-3.28c0-2.2,1.1-3.29,3.29-3.29S21,24,21,26.19Zm2.8,20.7q0,3.28-3.29,3.29t-3.29-3.29q0-3.28,3.29-3.29T23.75,46.89ZM24.48,56c0,2.12-1.1,3.17-3.29,3.17s-3.29-1-3.29-3.17,1.1-3.29,3.29-3.29S24.48,53.83,24.48,56Zm.12,29c0,2.11-1.09,3.17-3.29,3.17S18.15,87.12,18.15,85s1.05-3.29,3.16-3.29S24.6,82.82,24.6,85Zm.12-11.08q0,3.28-3.16,3.28c-2.2,0-3.29-1.09-3.29-3.28s1.09-3.29,3.29-3.29S24.72,71.73,24.72,73.93Zm.49-35.81q0,3.29-3.29,3.29t-3.16-3.29q0-3.16,3.16-3.17T25.21,38.12ZM26.43,9.86c0,2.2-1.06,3.29-3.17,3.29S20,12.06,20,9.86s1.1-3.16,3.29-3.16S26.43,7.75,26.43,9.86ZM27,20.34q0,3.29-3.17,3.29t-3.29-3.29q0-3.28,3.29-3.29T27,20.34Zm.48,43.48q0,3.29-3.28,3.29c-2.12,0-3.17-1.1-3.17-3.29s1.05-3.29,3.17-3.29S27.52,61.63,27.52,63.82ZM29.11,30.2c0,2.12-1.1,3.17-3.29,3.17s-3.29-1-3.29-3.17,1.1-3.28,3.29-3.28S29.11,28,29.11,30.2Zm1.82,49.69c0,2.2-1.09,3.29-3.28,3.29s-3.29-1.09-3.29-3.29,1.09-3.28,3.29-3.28S30.93,77.7,30.93,79.89ZM32,89.15q0,3.28-3.29,3.29t-3.29-3.29q0-3.29,3.29-3.29T32,89.15Zm.85-19.24c0,2.19-1.09,3.29-3.29,3.29s-3.16-1.1-3.16-3.29,1.05-3.17,3.16-3.17S32.88,67.8,32.88,69.91Zm.73-63.58c0,2.2-1,3.29-3.16,3.29s-3.29-1.09-3.29-3.29,1.1-3.16,3.29-3.16S33.61,4.22,33.61,6.33Zm1,8.65q0,3.29-3.29,3.29T28.13,15q0-3.29,3.17-3.29T34.59,15Zm1,8.89c0,2.19-1.09,3.29-3.29,3.29S29,26.06,29,23.87s1.09-3.29,3.28-3.29S35.56,21.68,35.56,23.87Zm3.53,59.07q0,3.28-3.28,3.29c-2.2,0-3.29-1.1-3.29-3.29s1.09-3.17,3.29-3.17S39.09,80.83,39.09,82.94Zm.61-8.53c0,2.2-1.09,3.29-3.28,3.29s-3.29-1.09-3.29-3.29,1.09-3.28,3.29-3.28S39.7,72.22,39.7,74.41Zm.37,17.3Q40.07,95,36.9,95t-3.29-3.29q0-3.17,3.29-3.17T40.07,91.71ZM42.14,4q0,3.29-3.29,3.29T35.56,4q0-3.16,3.29-3.17T42.14,4Zm.61,8.52c0,2.12-1.1,3.17-3.29,3.17s-3.29-1.05-3.29-3.17,1.1-3.28,3.29-3.28S42.75,10.35,42.75,12.54Zm.73,7.68q0,3.29-3.29,3.29T37,20.22c0-2.2,1.06-3.29,3.17-3.29S43.48,18,43.48,20.22Zm4.26,56.51q0,3.17-3.16,3.16c-2.2,0-3.29-1-3.29-3.16s1.09-3.29,3.29-3.29S47.74,74.54,47.74,76.73ZM48,84.52q0,3.28-3.29,3.29c-2.2,0-3.29-1.1-3.29-3.29s1.09-3.29,3.29-3.29S48,82.33,48,84.52Zm1.09,8.28c0,2.2-1.09,3.29-3.29,3.29S42.5,95,42.5,92.8s1.1-3.28,3.29-3.28S49.08,90.61,49.08,92.8ZM50.91,3.29q0,3.29-3.29,3.29T44.33,3.29Q44.33,0,47.62,0T50.91,3.29Zm.12,8.4Q51,15,47.74,15t-3.16-3.29q0-3.16,3.16-3.16T51,11.69Zm.49,7.92q0,3.16-3.29,3.16t-3.29-3.16q0-3.28,3.29-3.29T51.52,19.61ZM55.9,76.12c0,2.11-1,3.17-3.17,3.17s-3.28-1.06-3.28-3.17,1.09-3.29,3.28-3.29S55.9,73.93,55.9,76.12Zm0,8c0,2.19-1,3.29-3.17,3.29s-3.28-1.1-3.28-3.29S50.54,81,52.73,81,55.9,82.05,55.9,84.16Zm1.22,8.4q0,3.16-3.17,3.17t-3.29-3.17q0-3.28,3.29-3.29T57.12,92.56ZM59.8,4.87Q59.8,8,56.51,8T53.22,4.87q0-3.28,3.29-3.29T59.8,4.87ZM60,13.15c0,2.2-1,3.29-3.16,3.29s-3.29-1.09-3.29-3.29,1.09-3.29,3.29-3.29S60,11,60,13.15Zm.37,8.16c0,2.12-1.1,3.17-3.29,3.17s-3.29-1.05-3.29-3.17S54.93,18,57.12,18,60.41,19.12,60.41,21.31ZM63.33,73.8c0,2.12-1.1,3.17-3.29,3.17s-3.29-1-3.29-3.17,1.1-3.28,3.29-3.28S63.33,71.61,63.33,73.8Zm.49,8.41q0,3.29-3.29,3.29t-3.29-3.29q0-3.28,3.29-3.29T63.82,82.21Zm.61,8.16q0,3.28-3.29,3.29t-3.29-3.29q0-3.28,3.29-3.29T64.43,90.37ZM68.57,7.79c0,2.12-1.1,3.17-3.29,3.17S62,9.91,62,7.79s1.1-3.28,3.29-3.28S68.57,5.6,68.57,7.79Zm0,8.16c0,2.2-1.1,3.29-3.29,3.29S62,18.15,62,16s1.1-3.28,3.29-3.28S68.57,13.76,68.57,16Zm0,8.29q0,3.17-3.29,3.16T62,24.24C62,22,63.09,21,65.28,21S68.57,22,68.57,24.24Zm2.68,44.94q0,3.28-3.17,3.28t-3.29-3.28c0-2.2,1.1-3.29,3.29-3.29S71.25,67,71.25,69.18Zm0,8.77q0,3.28-3.17,3.28T64.79,78c0-2.12,1.1-3.17,3.29-3.17S71.25,75.83,71.25,78Zm0,8.89q0,3.28-3.17,3.28t-3.29-3.28c0-2.2,1.1-3.29,3.29-3.29S71.25,84.64,71.25,86.84Z"/><path class="b94300d8-1e52-4cc5-9fb6-7e5ef46d7bee" d="M85,6.58Q85,10,81.72,10T78.43,6.58c0-2.2,1.1-3.29,3.29-3.29S85,4.38,85,6.58Zm0,8.28q0,3.29-3.29,3.29t-3.29-3.29q0-3.28,3.29-3.29T85,14.86Zm0,8.28q0,3.28-3.29,3.29t-3.29-3.29q0-3.29,3.29-3.29T85,23.14Zm0,8.16q0,3.4-3.29,3.41T78.43,31.3q0-3.28,3.29-3.29T85,31.3Zm0,8.28q0,3.29-3.29,3.29t-3.29-3.29q0-3.28,3.29-3.29T85,39.58Zm0,8.28c0,2.2-1.1,3.29-3.29,3.29s-3.29-1.09-3.29-3.29,1.1-3.28,3.29-3.28S85,45.67,85,47.86Zm0,8.29q0,3.29-3.29,3.28t-3.29-3.28q0-3.42,3.29-3.42T85,56.15Zm0,8.76c0,2.2-1.1,3.29-3.29,3.29s-3.29-1.09-3.29-3.29,1.1-3.28,3.29-3.28S85,62.72,85,64.91ZM87,73.68c0,2.2-1.14,3.29-3.41,3.29s-3.29-1.09-3.29-3.29,1.09-3.41,3.29-3.41S87,71.41,87,73.68ZM91,81q0,3.29-3.29,3.29T84.4,81q0-3.28,3.29-3.29T91,81ZM93.41,6.58c0,2.27-1.09,3.41-3.29,3.41s-3.28-1.14-3.28-3.41,1.09-3.29,3.28-3.29S93.41,4.38,93.41,6.58Zm0,8.28c0,2.19-1.09,3.29-3.29,3.29s-3.28-1.1-3.28-3.29,1.09-3.29,3.28-3.29S93.41,12.67,93.41,14.86Zm0,8.28c0,2.19-1.09,3.29-3.29,3.29s-3.28-1.1-3.28-3.29,1.09-3.29,3.28-3.29S93.41,21,93.41,23.14Zm0,8.16c0,2.27-1.09,3.41-3.29,3.41s-3.28-1.14-3.28-3.41S87.93,28,90.12,28,93.41,29.11,93.41,31.3Zm0,8.28c0,2.19-1.09,3.29-3.29,3.29s-3.28-1.1-3.28-3.29,1.09-3.29,3.28-3.29S93.41,37.39,93.41,39.58Zm0,8.28c0,2.2-1.09,3.29-3.29,3.29s-3.28-1.09-3.28-3.29,1.09-3.28,3.28-3.28S93.41,45.67,93.41,47.86Zm0,8.29c0,2.19-1.09,3.28-3.29,3.28s-3.28-1.09-3.28-3.28,1.09-3.42,3.28-3.42S93.41,53.87,93.41,56.15Zm0,8.16c0,2.19-1.09,3.28-3.29,3.28s-3.28-1.09-3.28-3.28S87.93,61,90.12,61,93.41,62.11,93.41,64.31Zm2.92,8.15c0,2.2-1.09,3.29-3.28,3.29s-3.29-1.09-3.29-3.29,1.09-3.28,3.29-3.28S96.33,70.27,96.33,72.46Zm.74,14.86c0,2.2-1.1,3.29-3.29,3.29s-3.29-1.09-3.29-3.29,1.09-3.41,3.29-3.41S97.07,85.05,97.07,87.32Zm3.89-8c0,2.27-1.09,3.41-3.29,3.41s-3.28-1.14-3.28-3.41S95.48,76,97.67,76,101,77.09,101,79.29Zm.86-72.71q0,3.4-3.29,3.41c-2.2,0-3.29-1.14-3.29-3.41s1.09-3.29,3.29-3.29S101.82,4.38,101.82,6.58Zm0,8.28q0,3.29-3.29,3.29c-2.2,0-3.29-1.1-3.29-3.29s1.09-3.29,3.29-3.29S101.82,12.67,101.82,14.86Zm0,8.28q0,3.28-3.29,3.29c-2.2,0-3.29-1.1-3.29-3.29s1.09-3.29,3.29-3.29S101.82,21,101.82,23.14Zm0,8.16q0,3.4-3.29,3.41c-2.2,0-3.29-1.14-3.29-3.41S96.33,28,98.53,28,101.82,29.11,101.82,31.3Zm0,8.28q0,3.29-3.29,3.29c-2.2,0-3.29-1.1-3.29-3.29s1.09-3.29,3.29-3.29S101.82,37.39,101.82,39.58Zm0,8.28c0,2.2-1.1,3.29-3.29,3.29s-3.29-1.09-3.29-3.29,1.09-3.28,3.29-3.28S101.82,45.67,101.82,47.86Zm0,8.29q0,3.29-3.29,3.28c-2.2,0-3.29-1.09-3.29-3.28s1.09-3.42,3.29-3.42S101.82,53.87,101.82,56.15Zm0,8.16q0,3.28-3.29,3.28c-2.2,0-3.29-1.09-3.29-3.28S96.33,61,98.53,61,101.82,62.11,101.82,64.31Zm3.41,27.15c0,2.2-1.1,3.29-3.29,3.29s-3.29-1.09-3.29-3.29,1.1-3.28,3.29-3.28S105.23,89.27,105.23,91.46Zm1.34-18.63q0,3.4-3.29,3.41c-2.2,0-3.29-1.14-3.29-3.41s1.09-3.29,3.29-3.29S106.57,70.64,106.57,72.83ZM107.9,83.3c0,2.28-1.09,3.41-3.28,3.41s-3.29-1.13-3.29-3.41S102.42,80,104.62,80,107.9,81.11,107.9,83.3Zm5.73,10.11q0,3.28-3.29,3.29t-3.29-3.29q0-3.28,3.29-3.29T113.63,93.41Zm.12-16.2c0,2.12-1,3.17-3,3.17s-3.17-1-3.17-3.17,1-3.16,3.17-3.16S113.75,75.1,113.75,77.21Zm2.31,8.53q0,3.29-3.28,3.29c-2.2,0-3.29-1.1-3.29-3.29s1.09-3.29,3.29-3.29S116.06,83.55,116.06,85.74Zm6.22,8.16q0,3.28-3.29,3.29T115.7,93.9q0-3.29,3.29-3.29T122.28,93.9Zm-.37-15.22A2.93,2.93,0,1,1,119,75.75,2.58,2.58,0,0,1,121.91,78.68ZM120.33,86c0,1.06-.49,1.59-1.46,1.59A1.41,1.41,0,0,1,117.28,86c0-1,.53-1.46,1.59-1.46A1.29,1.29,0,0,1,120.33,86Zm8.16-.24q0,3.29-3.41,3.29t-3.29-3.29q0-3.28,3.29-3.29T128.49,85.74Zm1.82-8.53c0,2.12-1,3.17-3,3.17s-3.17-1-3.17-3.17,1.06-3.16,3.17-3.16S130.31,75.1,130.31,77.21Zm.49,16.2c0,2.19-1.09,3.29-3.29,3.29s-3.28-1.1-3.28-3.29,1.09-3.29,3.28-3.29S130.8,91.22,130.8,93.41Zm5.85-10.11c0,2.28-1.14,3.41-3.41,3.41S130,85.58,130,83.3,131,80,133.24,80,136.65,81.11,136.65,83.3ZM138,72.83q0,3.4-3.41,3.41c-2.2,0-3.29-1.14-3.29-3.41s1.09-3.29,3.29-3.29S138,70.64,138,72.83Zm1.22,18.63c0,2.2-1.1,3.29-3.29,3.29s-3.29-1.09-3.29-3.29,1.09-3.28,3.29-3.28S139.21,89.27,139.21,91.46Zm3.28-84.88q0,3.4-3.28,3.41t-3.42-3.41c0-2.2,1.14-3.29,3.42-3.29S142.49,4.38,142.49,6.58Zm0,8.28q0,3.29-3.28,3.29t-3.42-3.29q0-3.28,3.42-3.29T142.49,14.86Zm0,8.28q0,3.28-3.28,3.29t-3.42-3.29q0-3.29,3.42-3.29T142.49,23.14Zm0,8.16q0,3.4-3.28,3.41t-3.42-3.41q0-3.28,3.42-3.29T142.49,31.3Zm0,8.28q0,3.29-3.28,3.29t-3.42-3.29q0-3.28,3.42-3.29T142.49,39.58Zm0,8.28c0,2.2-1.09,3.29-3.28,3.29s-3.42-1.09-3.42-3.29,1.14-3.28,3.42-3.28S142.49,45.67,142.49,47.86Zm0,8.29q0,3.29-3.28,3.28t-3.42-3.28q0-3.42,3.42-3.42T142.49,56.15Zm0,8.16q0,3.28-3.28,3.28t-3.42-3.28c0-2.2,1.14-3.29,3.42-3.29S142.49,62.11,142.49,64.31Zm1,15q0,3.4-3.29,3.41t-3.29-3.41c0-2.2,1.1-3.29,3.29-3.29S143.47,77.09,143.47,79.29Zm3.89,8c0,2.2-1.09,3.29-3.28,3.29s-3.29-1.09-3.29-3.29,1.09-3.41,3.29-3.41S147.36,85.05,147.36,87.32Zm.86-14.86c0,2.2-1.14,3.29-3.41,3.29s-3.29-1.09-3.29-3.29,1.1-3.28,3.29-3.28S148.22,70.27,148.22,72.46ZM150.9,6.58q0,3.4-3.29,3.41c-2.28,0-3.41-1.14-3.41-3.41s1.13-3.29,3.41-3.29S150.9,4.38,150.9,6.58Zm0,8.28q0,3.29-3.29,3.29c-2.28,0-3.41-1.1-3.41-3.29s1.13-3.29,3.41-3.29S150.9,12.67,150.9,14.86Zm0,8.28q0,3.28-3.29,3.29c-2.28,0-3.41-1.1-3.41-3.29s1.13-3.29,3.41-3.29S150.9,21,150.9,23.14Zm0,8.16q0,3.4-3.29,3.41c-2.28,0-3.41-1.14-3.41-3.41S145.33,28,147.61,28,150.9,29.11,150.9,31.3Zm0,8.28q0,3.29-3.29,3.29c-2.28,0-3.41-1.1-3.41-3.29s1.13-3.29,3.41-3.29S150.9,37.39,150.9,39.58Zm0,8.28c0,2.2-1.1,3.29-3.29,3.29s-3.41-1.09-3.41-3.29,1.13-3.28,3.41-3.28S150.9,45.67,150.9,47.86Zm0,8.29q0,3.29-3.29,3.28c-2.28,0-3.41-1.09-3.41-3.28s1.13-3.42,3.41-3.42S150.9,53.87,150.9,56.15Zm0,8.16q0,3.28-3.29,3.28c-2.28,0-3.41-1.09-3.41-3.28S145.33,61,147.61,61,150.9,62.11,150.9,64.31ZM153.58,81q0,3.29-3.29,3.29c-2.28,0-3.41-1.1-3.41-3.29s1.13-3.29,3.41-3.29S153.58,78.8,153.58,81Zm4-7.31c0,2.2-1.1,3.29-3.29,3.29S151,75.88,151,73.68s1.09-3.41,3.29-3.41S157.6,71.41,157.6,73.68Zm1.7-67.1Q159.3,10,156,10T152.6,6.58c0-2.2,1.14-3.29,3.41-3.29S159.3,4.38,159.3,6.58Zm0,8.28q0,3.29-3.29,3.29t-3.41-3.29q0-3.28,3.41-3.29T159.3,14.86Zm0,8.28q0,3.28-3.29,3.29t-3.41-3.29q0-3.29,3.41-3.29T159.3,23.14Zm0,8.16q0,3.4-3.29,3.41T152.6,31.3Q152.6,28,156,28T159.3,31.3Zm0,8.28q0,3.29-3.29,3.29t-3.41-3.29q0-3.28,3.41-3.29T159.3,39.58Zm0,8.28c0,2.2-1.1,3.29-3.29,3.29s-3.41-1.09-3.41-3.29,1.14-3.28,3.41-3.28S159.3,45.67,159.3,47.86Zm0,8.29q0,3.29-3.29,3.28t-3.41-3.28q0-3.42,3.41-3.42T159.3,56.15Zm0,8.76c0,2.2-1.1,3.29-3.29,3.29s-3.41-1.09-3.41-3.29,1.14-3.28,3.41-3.28S159.3,62.72,159.3,64.91Z"/><path class="b94300d8-1e52-4cc5-9fb6-7e5ef46d7bee" d="M172.82,10c-2.28,0-3.41-1.14-3.41-3.41s1.13-3.29,3.41-3.29,3.41,1.09,3.41,3.29S175.09,10,172.82,10Zm0,8.52c-2.28,0-3.41-1.13-3.41-3.41s1.13-3.41,3.41-3.41,3.41,1.14,3.41,3.41S175.09,18.51,172.82,18.51Zm0,8.53c-2.28,0-3.41-1.14-3.41-3.41s1.13-3.41,3.41-3.41,3.41,1.13,3.41,3.41S175.09,27,172.82,27Zm0,8.4c-2.28,0-3.41-1.14-3.41-3.41s1.13-3.41,3.41-3.41,3.41,1.14,3.41,3.41S175.09,35.44,172.82,35.44Zm0,8.53c-2.28,0-3.41-1.14-3.41-3.41s1.13-3.41,3.41-3.41,3.41,1.13,3.41,3.41S175.09,44,172.82,44Zm0,8.4c-2.28,0-3.41-1.14-3.41-3.41s1.13-3.29,3.41-3.29,3.41,1.1,3.41,3.29S175.09,52.37,172.82,52.37Zm0,8.53c-2.28,0-3.41-1.14-3.41-3.42s1.13-3.41,3.41-3.41,3.41,1.14,3.41,3.41S175.09,60.9,172.82,60.9Zm0,8.52c-2.28,0-3.41-1.14-3.41-3.41s1.13-3.41,3.41-3.41,3.41,1.14,3.41,3.41S175.09,69.42,172.82,69.42Zm0,8.4c-2.28,0-3.41-1.13-3.41-3.41S170.54,71,172.82,71s3.41,1.14,3.41,3.41S175.09,77.82,172.82,77.82Zm0,8.53c-2.28,0-3.41-1.14-3.41-3.41s1.13-3.41,3.41-3.41,3.41,1.14,3.41,3.41S175.09,86.35,172.82,86.35Zm0,8.4c-2.28,0-3.41-1.09-3.41-3.29s1.13-3.41,3.41-3.41,3.41,1.14,3.41,3.41S175.09,94.75,172.82,94.75ZM181.47,10c-2.28,0-3.41-1.14-3.41-3.41s1.13-3.29,3.41-3.29,3.41,1.09,3.41,3.29S183.74,10,181.47,10Zm0,8.52c-2.28,0-3.41-1.13-3.41-3.41s1.13-3.41,3.41-3.41,3.41,1.14,3.41,3.41S183.74,18.51,181.47,18.51Zm0,8.53c-2.28,0-3.41-1.14-3.41-3.41s1.13-3.41,3.41-3.41,3.41,1.13,3.41,3.41S183.74,27,181.47,27Zm0,8.4c-2.28,0-3.41-1.14-3.41-3.41s1.13-3.41,3.41-3.41,3.41,1.14,3.41,3.41S183.74,35.44,181.47,35.44Zm0,8.53c-2.28,0-3.41-1.14-3.41-3.41s1.13-3.41,3.41-3.41,3.41,1.13,3.41,3.41S183.74,44,181.47,44Zm0,8.4c-2.28,0-3.41-1.14-3.41-3.41s1.13-3.29,3.41-3.29,3.41,1.1,3.41,3.29S183.74,52.37,181.47,52.37Zm0,8.53c-2.28,0-3.41-1.14-3.41-3.42s1.13-3.41,3.41-3.41,3.41,1.14,3.41,3.41S183.74,60.9,181.47,60.9Zm0,8.52c-2.28,0-3.41-1.14-3.41-3.41s1.13-3.41,3.41-3.41,3.41,1.14,3.41,3.41S183.74,69.42,181.47,69.42Zm0,8.4c-2.28,0-3.41-1.13-3.41-3.41S179.19,71,181.47,71s3.41,1.14,3.41,3.41S183.74,77.82,181.47,77.82Zm0,8.53c-2.28,0-3.41-1.14-3.41-3.41s1.13-3.41,3.41-3.41,3.41,1.14,3.41,3.41S183.74,86.35,181.47,86.35Zm0,8.4c-2.28,0-3.41-1.09-3.41-3.29s1.13-3.41,3.41-3.41,3.41,1.14,3.41,3.41S183.74,94.75,181.47,94.75ZM190.11,10q-3.41,0-3.41-3.41c0-2.2,1.14-3.29,3.41-3.29s3.41,1.09,3.41,3.29S192.39,10,190.11,10Zm0,8.52c-2.27,0-3.41-1.13-3.41-3.41s1.14-3.41,3.41-3.41,3.41,1.14,3.41,3.41S192.39,18.51,190.11,18.51Zm0,8.53q-3.41,0-3.41-3.41c0-2.28,1.14-3.41,3.41-3.41s3.41,1.13,3.41,3.41S192.39,27,190.11,27Zm0,8.4q-3.41,0-3.41-3.41t3.41-3.41c2.28,0,3.41,1.14,3.41,3.41S192.39,35.44,190.11,35.44Zm0,8.53q-3.41,0-3.41-3.41c0-2.28,1.14-3.41,3.41-3.41s3.41,1.13,3.41,3.41S192.39,44,190.11,44Zm0,8.4q-3.41,0-3.41-3.41t3.41-3.29c2.28,0,3.41,1.1,3.41,3.29S192.39,52.37,190.11,52.37Zm0,8.53q-3.41,0-3.41-3.42t3.41-3.41c2.28,0,3.41,1.14,3.41,3.41S192.39,60.9,190.11,60.9Zm0,8.52q-3.41,0-3.41-3.41t3.41-3.41c2.28,0,3.41,1.14,3.41,3.41S192.39,69.42,190.11,69.42Zm0,8.4c-2.27,0-3.41-1.13-3.41-3.41S187.84,71,190.11,71s3.41,1.14,3.41,3.41S192.39,77.82,190.11,77.82Zm0,8.53q-3.41,0-3.41-3.41t3.41-3.41c2.28,0,3.41,1.14,3.41,3.41S192.39,86.35,190.11,86.35Zm0,8.4c-2.27,0-3.41-1.09-3.41-3.29s1.14-3.41,3.41-3.41,3.41,1.14,3.41,3.41S192.39,94.75,190.11,94.75Zm4.75-81.6a1.07,1.07,0,0,1-1.21-1.21c0-.9.4-1.34,1.21-1.34s1.22.44,1.22,1.34A1.07,1.07,0,0,1,194.86,13.15Zm.86,50.3a1.4,1.4,0,0,1-1.59-1.58c0-1,.53-1.46,1.59-1.46s1.58.49,1.58,1.46A1.4,1.4,0,0,1,195.72,63.45Zm3-53.46q-3.4,0-3.41-3.41c0-2.2,1.14-3.29,3.41-3.29s3.41,1.09,3.41,3.29S201,10,198.76,10Zm0,10.35q-3.4,0-3.41-3.41t3.41-3.41q3.41,0,3.41,3.41T198.76,20.34Zm-.24,30.08c-2.12,0-3.17-1.05-3.17-3.17s1.05-3.16,3.17-3.16,3.16,1,3.16,3.16S200.63,50.42,198.52,50.42Zm0,8.4c-2.12,0-3.17-1-3.17-3s1.05-3.17,3.17-3.17,3.16,1.06,3.16,3.17S200.63,58.82,198.52,58.82Zm4.38,7.43c-2.27,0-3.41-1.13-3.41-3.41s1.14-3.41,3.41-3.41,3.41,1.14,3.41,3.41S205.17,66.25,202.9,66.25Zm-1.09-53c-1,0-1.47-.44-1.47-1.33a1.3,1.3,0,0,1,1.47-1.47c.89,0,1.33.49,1.33,1.47A1.17,1.17,0,0,1,201.81,13.27ZM207,49.45q-3.4,0-3.41-3.41c0-2.28,1.14-3.41,3.41-3.41s3.29,1.13,3.29,3.41S209.23,49.45,207,49.45Zm.12,24q-3.41,0-3.41-3.41t3.41-3.41c2.28,0,3.41,1.14,3.41,3.41S209.44,73.44,207.16,73.44Zm.25-51.64c-2.28,0-3.41-1.14-3.41-3.41S205.13,15,207.41,15s3.41,1.14,3.41,3.41S209.68,21.8,207.41,21.8Zm0-12.3q-3.28,0-3.29-3.29t3.29-3.29q3.28,0,3.29,3.29T207.41,9.5Zm.12,48.23q-3.17,0-3.17-3c0-2,1.06-3,3.17-3a2.69,2.69,0,0,1,3,3Q210.57,57.73,207.53,57.73Zm.12-43.85c-1,0-1.46-.52-1.46-1.58s.49-1.58,1.46-1.58a1.4,1.4,0,0,1,1.58,1.58A1.39,1.39,0,0,1,207.65,13.88Zm3.41,51.28q-3.17,0-3.17-3T211.06,59q3,0,3.05,3.16A2.7,2.7,0,0,1,211.06,65.16Zm.49,15.34c-2.28,0-3.41-1.13-3.41-3.41s1.13-3.41,3.41-3.41S215,74.82,215,77.09,213.82,80.5,211.55,80.5Zm2.68-36.41c-2.28,0-3.41-1.14-3.41-3.41s1.13-3.41,3.41-3.41,3.41,1.14,3.41,3.41S216.5,44.09,214.23,44.09Zm.12-16.69c-2.19,0-3.29-1.13-3.29-3.41s1.1-3.41,3.29-3.41,3.41,1.14,3.41,3.41S216.62,27.4,214.35,27.4Zm1,26.07q-3.4,0-3.41-3.41c0-2.28,1.14-3.41,3.41-3.41s3.29,1.13,3.29,3.41S217.52,53.47,215.32,53.47Zm-.61-37.15a2.26,2.26,0,0,1-2.55-2.56,2.56,2.56,0,1,1,5.11,0A2.26,2.26,0,0,1,214.71,16.32Zm1.22,71.37q-3.41,0-3.41-3.41t3.41-3.41q3.28,0,3.29,3.41T215.93,87.69Zm.12-77.95q-3.17,0-3.16-3.16t3.16-3.05c2.12,0,3.17,1,3.17,3.05S218.17,9.74,216.05,9.74Zm.37,62.85q-3.16,0-3.17-3.17t3.17-3q3,0,3,3T216.42,72.59Zm.49-37c-2.28,0-3.41-1.13-3.41-3.41s1.13-3.29,3.41-3.29,3.41,1.1,3.41,3.29S219.18,35.56,216.91,35.56Zm.85,25.34q-3,0-3-3.17a2.7,2.7,0,0,1,3-3q3.17,0,3.17,3T217.76,60.9Zm2.44,33.85c-2.28,0-3.41-1.09-3.41-3.29s1.13-3.41,3.41-3.41,3.41,1.14,3.41,3.41S222.47,94.75,220.2,94.75ZM221.29,22q-3.4,0-3.41-3.28c0-2.28,1.14-3.41,3.41-3.41s3.41,1.13,3.41,3.41S223.56,22,221.29,22Zm.49,57.85q-3.17,0-3.17-3t3.17-3.17q3,0,3,3.17T221.78,79.89Zm.73-33.49c-2.27,0-3.41-1.13-3.41-3.41s1.14-3.41,3.41-3.41,3.41,1.14,3.41,3.41S224.78,46.4,222.51,46.4Zm.24,21.32q-3.17,0-3.16-3.17t3.16-3.17q3.17,0,3.17,3.17T222.75,67.72Zm1-55.3q-3,0-3-3t3-3.17q3.17,0,3.16,3.17T223.73,12.42ZM224,55.29q-3,0-3-3t3-3.17q3,0,3.05,3.17T224,55.29Zm1.22-25.57c-2.28,0-3.41-1.14-3.41-3.41s1.13-3.41,3.41-3.41,3.41,1.13,3.41,3.41S227.46,29.72,225.19,29.72Zm.24,8.89q-3.41,0-3.41-3.41t3.41-3.41q3.28,0,3.29,3.41T225.43,38.61ZM227,87.32c-2,0-3.05-1-3.05-3.16s1-3,3.05-3,3.16,1,3.16,3S229.13,87.32,227,87.32Zm.6-12.91q-3.17,0-3.16-3.16c0-2.2,1-3.29,3.16-3.29s3.29,1.09,3.29,3.29S229.82,74.41,227.62,74.41Zm.49,20.1a2.15,2.15,0,0,1-2.43-2.44q0-2.55,2.43-2.55c1.62,0,2.44.85,2.44,2.55A2.16,2.16,0,0,1,228.11,94.51Zm1.83-76.36a2.7,2.7,0,0,1-3.05-3q0-3,3.05-3t3.16,3Q233.1,18.15,229.94,18.15Zm.24,31.54q-3.17,0-3.16-3t3.16-3a2.7,2.7,0,0,1,3,3Q233.23,49.7,230.18,49.69Zm2.44,31.54q-3.28,0-3.29-3.28c0-2.2,1.1-3.29,3.29-3.29s3.29,1.09,3.29,3.29S234.81,81.23,232.62,81.23Zm1.09-55.41c-2.11,0-3.16-1-3.16-3.05s1-3.16,3.16-3.16,3,1.05,3,3.16S235.74,25.82,233.71,25.82Zm.13,16.44q-3,0-3.05-3a2.7,2.7,0,0,1,3.05-3q3.16,0,3.16,3T233.84,42.26Zm.85-8.16c-2,0-3.05-1.05-3.05-3.17s1-3,3.05-3a2.69,2.69,0,0,1,3,3C237.73,33.05,236.72,34.1,234.69,34.1Zm.36,60.41c-1.7,0-2.55-.81-2.55-2.44a2.25,2.25,0,0,1,2.55-2.55c1.63,0,2.44.85,2.44,2.55A2.15,2.15,0,0,1,235.05,94.51Zm2.56-6.46c-2.27,0-3.41-1.13-3.41-3.41s1.14-3.28,3.41-3.28,3.29,1.09,3.29,3.28S239.8,88.05,237.61,88.05Zm4.87,6.7c-2.27,0-3.41-1.09-3.41-3.29s1.14-3.41,3.41-3.41,3.41,1.14,3.41,3.41S244.75,94.75,242.48,94.75Z"/><path class="b94300d8-1e52-4cc5-9fb6-7e5ef46d7bee" d="M256,94.75c-2.19,0-3.29-1.09-3.29-3.29s1.1-3.28,3.29-3.28,3.29,1.09,3.29,3.28S258.19,94.75,256,94.75ZM258.8,87q-3.28,0-3.29-3.29t3.29-3.29q3.29,0,3.29,3.29T258.8,87Zm2.8-7.8q-3.28,0-3.29-3.28c0-2.2,1.1-3.29,3.29-3.29s3.29,1.09,3.29,3.29S263.79,79.16,261.6,79.16Zm2.8-7.79q-3.28,0-3.28-3.29t3.28-3.29c2.2,0,3.29,1.1,3.29,3.29S266.6,71.37,264.4,71.37Zm.86,23.38c-2.2,0-3.29-1.09-3.29-3.29s1.09-3.28,3.29-3.28,3.41,1.09,3.41,3.28S267.53,94.75,265.26,94.75Zm1.95-30.81q-3.42,0-3.42-3.29t3.42-3.29q3.29,0,3.28,3.29T267.21,63.94Zm.85,23q-3.29,0-3.29-3.29t3.29-3.29q3.29,0,3.29,3.29T268.06,87Zm2.31-30.81q-3.28,0-3.29-3.29c0-2.2,1.1-3.29,3.29-3.29s3.29,1.09,3.29,3.29S272.56,56.15,270.37,56.15Zm.49,23q-3.28,0-3.29-3.28c0-2.2,1.1-3.29,3.29-3.29s3.29,1.09,3.29,3.29S273.05,79.16,270.86,79.16Zm2.68-30.81q-3.29,0-3.29-3.29t3.29-3.29q3.4,0,3.41,3.29T273.54,48.35Zm.12,23q-3.29,0-3.29-3.29t3.29-3.29q3.29,0,3.29,3.29T273.66,71.37Zm1,23.38c-2.27,0-3.41-1.09-3.41-3.29s1.14-3.28,3.41-3.28,3.29,1.09,3.29,3.28S276.83,94.75,274.63,94.75Zm1.71-54.19q-3.29,0-3.29-3.29T276.34,34q3.29,0,3.29,3.29T276.34,40.56Zm.12,23.38q-3.29,0-3.29-3.29t3.29-3.29q3.29,0,3.29,3.29T276.46,63.94Zm.85,23Q274,87,274,83.67t3.28-3.29c2.28,0,3.41,1.1,3.41,3.29S279.59,87,277.31,87Zm1.83-53.83q-3.28,0-3.29-3.29t3.29-3.29q3.28,0,3.29,3.29T279.14,33.13Zm.49,23q-3.28,0-3.29-3.29c0-2.2,1.1-3.29,3.29-3.29s3.29,1.09,3.29,3.29S281.82,56.15,279.63,56.15Zm.48,23q-3.28,0-3.28-3.28c0-2.2,1.09-3.29,3.28-3.29s3.29,1.09,3.29,3.29S282.31,79.16,280.11,79.16Zm2.32-53.83c-2.28,0-3.41-1.09-3.41-3.29s1.13-3.28,3.41-3.28,3.29,1.09,3.29,3.28S284.62,25.33,282.43,25.33Zm.49,23c-2.28,0-3.41-1.1-3.41-3.29s1.13-3.29,3.41-3.29,3.28,1.1,3.28,3.29S285.11,48.35,282.92,48.35Zm0,23c-2.2,0-3.29-1.1-3.29-3.29s1.09-3.29,3.29-3.29,3.28,1.1,3.28,3.29S285.11,71.37,282.92,71.37Zm2.68-53.83c-2.2,0-3.29-1.1-3.29-3.29S283.4,11,285.6,11s3.28,1.1,3.28,3.29S287.79,17.54,285.6,17.54Zm0,23c-2.2,0-3.29-1.1-3.29-3.29S283.4,34,285.6,34s3.41,1.1,3.41,3.29S287.87,40.56,285.6,40.56Zm.12,23.38c-2.2,0-3.29-1.1-3.29-3.29s1.09-3.29,3.29-3.29,3.29,1.1,3.29,3.29S287.91,63.94,285.72,63.94Zm2.68-30.81c-2.2,0-3.29-1.1-3.29-3.29s1.09-3.29,3.29-3.29,3.41,1.1,3.41,3.29S290.67,33.13,288.4,33.13Zm.36-23.39q-3.28,0-3.29-3.28T288.76,3q3.4,0,3.41,3.42T288.76,9.74Zm.12,46.41q-3.28,0-3.28-3.29c0-2.2,1.09-3.29,3.28-3.29s3.41,1.09,3.41,3.29S291.16,56.15,288.88,56.15Zm.13,23c-2.2,0-3.29-1.09-3.29-3.28s1.09-3.29,3.29-3.29,3.28,1.09,3.28,3.29S291.2,79.16,289,79.16Zm2.31-54.07c-1.95,0-2.92-1-2.92-3.05s1-3,2.92-3a2.69,2.69,0,0,1,3,3Q294.36,25.09,291.32,25.09Zm.12,46.28c-1.87,0-2.8-.89-2.8-2.68a2.47,2.47,0,0,1,2.8-2.8c1.79,0,2.68.93,2.68,2.8A2.37,2.37,0,0,1,291.44,71.37Zm.73-23q-3.29,0-3.29-3.29t3.29-3.29q3.29,0,3.29,3.29T292.17,48.35Zm.12-33.61a1.51,1.51,0,0,1-1.7-1.71A1.71,1.71,0,0,1,294,13,1.51,1.51,0,0,1,292.29,14.74Zm0,48.71a1.71,1.71,0,1,1,1.71-1.7A1.5,1.5,0,0,1,292.29,63.45Zm2.32-23.38a2.37,2.37,0,0,1-2.68-2.68,2.68,2.68,0,0,1,5.36,0A2.37,2.37,0,0,1,294.61,40.07Zm3.53-30.33q-3.4,0-3.41-3.28T298.14,3q3.28,0,3.29,3.42T298.14,9.74Zm.12,69.42q-3.28,0-3.29-3.28c0-2.2,1.1-3.29,3.29-3.29s3.29,1.09,3.29,3.29S300.45,79.16,298.26,79.16Zm-.12-60.77a2.58,2.58,0,0,1-2.92-2.92c0-2,1-3.05,2.92-3.05s3,1,3,3.05S300.17,18.39,298.14,18.39Zm.49,14.74c-2.28,0-3.41-1.1-3.41-3.29s1.13-3.29,3.41-3.29,3.29,1.1,3.29,3.29S300.82,33.13,298.63,33.13Zm-.37,32.51A2.36,2.36,0,0,1,295.58,63c0-1.87.89-2.81,2.68-2.81a2.48,2.48,0,0,1,2.8,2.81C301.06,64.75,300.13,65.64,298.26,65.64Zm-.12-41a1.72,1.72,0,0,1-1.95-2,1.72,1.72,0,0,1,1.95-1.95q2.07,0,2.07,1.95T298.14,24.6Zm.36,46.53a1.95,1.95,0,1,1,1.95-1.95A1.72,1.72,0,0,1,298.5,71.13ZM302.28,40c-1.87,0-2.8-.9-2.8-2.68s.93-2.68,2.8-2.68A2.37,2.37,0,0,1,305,37.27,2.37,2.37,0,0,1,302.28,40Zm1.71,8.4c-2.2,0-3.29-1.1-3.29-3.29s1.09-3.29,3.29-3.29,3.41,1.1,3.41,3.29S306.26,48.35,304,48.35Zm.85-23.26a2.7,2.7,0,0,1-3-3.05c0-2,1-3,3-3a2.69,2.69,0,0,1,3,3Q307.88,25.09,304.84,25.09Zm-.73,38.36a1.71,1.71,0,1,1,1.7-1.7A1.5,1.5,0,0,1,304.11,63.45Zm.12-48.71A1.51,1.51,0,0,1,302.52,13a1.71,1.71,0,0,1,3.41,0A1.5,1.5,0,0,1,304.23,14.74Zm1.58,56.63a2.37,2.37,0,0,1-2.68-2.68c0-1.87.9-2.8,2.68-2.8s2.68.93,2.68,2.8A2.37,2.37,0,0,1,305.81,71.37Zm1.46-15.22q-3.28,0-3.28-3.29c0-2.2,1.09-3.29,3.28-3.29s3.29,1.09,3.29,3.29S309.47,56.15,307.27,56.15Zm.13-46.41c-2.2,0-3.29-1.09-3.29-3.28S305.2,3,307.4,3s3.28,1.14,3.28,3.42S309.59,9.74,307.4,9.74Zm.12,69.42q-3.28,0-3.29-3.28c0-2.2,1.1-3.29,3.29-3.29s3.29,1.09,3.29,3.29S309.71,79.16,307.52,79.16Zm.24-46q-3.28,0-3.29-3.29t3.29-3.29q3.28,0,3.29,3.29T307.76,33.13Zm2.8,7.43q-3.4,0-3.41-3.29T310.56,34q3.29,0,3.29,3.29T310.56,40.56Zm-.12,23.38q-3.29,0-3.29-3.29t3.29-3.29q3.29,0,3.29,3.29T310.44,63.94Zm.12-46.4q-3.29,0-3.29-3.29T310.56,11q3.29,0,3.29,3.29T310.56,17.54Zm2.8,30.81q-3.41,0-3.41-3.29t3.41-3.29c2.2,0,3.29,1.1,3.29,3.29S315.56,48.35,313.36,48.35Zm-.12,23q-3.28,0-3.29-3.29t3.29-3.29q3.28,0,3.29,3.29T313.24,71.37Zm.61-46c-2.27,0-3.41-1.09-3.41-3.29s1.14-3.28,3.41-3.28,3.29,1.09,3.29,3.28S316,25.33,313.85,25.33ZM316,79.16q-3.29,0-3.29-3.28c0-2.2,1.1-3.29,3.29-3.29s3.29,1.09,3.29,3.29S318.23,79.16,316,79.16Zm.49-23q-3.28,0-3.29-3.29c0-2.2,1.1-3.29,3.29-3.29s3.29,1.09,3.29,3.29S318.72,56.15,316.53,56.15Zm.49-23c-2.2,0-3.29-1.1-3.29-3.29s1.09-3.29,3.29-3.29,3.29,1.1,3.29,3.29S319.21,33.13,317,33.13ZM318.84,87q-3.29,0-3.28-3.29t3.28-3.29c2.2,0,3.29,1.1,3.29,3.29S321,87,318.84,87Zm.86-23c-2.2,0-3.29-1.1-3.29-3.29s1.09-3.29,3.29-3.29,3.41,1.1,3.41,3.29S322,63.94,319.7,63.94Zm.12-23.38q-3.29,0-3.29-3.29T319.82,34q3.29,0,3.29,3.29T319.82,40.56Zm1.83,54.19c-2.28,0-3.42-1.09-3.42-3.29s1.14-3.28,3.42-3.28,3.28,1.09,3.28,3.28S323.84,94.75,321.65,94.75Zm.85-23.38q-3.28,0-3.29-3.29t3.29-3.29q3.28,0,3.29,3.29T322.5,71.37Zm.12-23q-3.28,0-3.29-3.29t3.29-3.29q3.28,0,3.29,3.29T322.62,48.35Zm2.68,30.81q-3.29,0-3.29-3.28c0-2.2,1.1-3.29,3.29-3.29s3.29,1.09,3.29,3.29S327.49,79.16,325.3,79.16Zm.49-23c-2.2,0-3.29-1.1-3.29-3.29s1.09-3.29,3.29-3.29,3.28,1.09,3.28,3.29S328,56.15,325.79,56.15ZM328.1,87q-3.28,0-3.29-3.29t3.29-3.29q3.28,0,3.29,3.29T328.1,87Zm1-23q-3.4,0-3.41-3.29t3.41-3.29c2.2,0,3.29,1.1,3.29,3.29S331.27,63.94,329.07,63.94Zm1.83,30.81c-2.19,0-3.29-1.09-3.29-3.29s1.1-3.28,3.29-3.28,3.29,1.09,3.29,3.28S333.09,94.75,330.9,94.75Zm.85-23.38q-3.28,0-3.28-3.29t3.28-3.29c2.28,0,3.41,1.1,3.41,3.29S334,71.37,331.75,71.37Zm2.8,7.79q-3.29,0-3.28-3.28c0-2.2,1.09-3.29,3.28-3.29s3.29,1.09,3.29,3.29S336.75,79.16,334.55,79.16Zm2.81,7.8c-2.2,0-3.29-1.1-3.29-3.29s1.09-3.29,3.29-3.29,3.28,1.1,3.28,3.29S339.55,87,337.36,87Zm2.8,7.79c-2.2,0-3.29-1.09-3.29-3.29s1.09-3.28,3.29-3.28,3.29,1.09,3.29,3.28S342.35,94.75,340.16,94.75Z"/><path class="b94300d8-1e52-4cc5-9fb6-7e5ef46d7bee" d="M353.55,6.33c0,2.28-1.09,3.41-3.28,3.41s-3.42-1.13-3.42-3.41,1.14-3.41,3.42-3.41S353.55,4.06,353.55,6.33Zm-4,10a2.37,2.37,0,0,1-2.68-2.68c0-1.7.9-2.56,2.68-2.56a2.26,2.26,0,0,1,2.56,2.56C352.09,15.43,351.24,16.32,349.53,16.32Zm4,5.12q0,3.28-3.28,3.28t-3.42-3.28q0-3.42,3.42-3.42T353.55,21.44ZM357,16.32c-1.7,0-2.55-.89-2.55-2.68A2.26,2.26,0,0,1,357,11.08c1.79,0,2.68.86,2.68,2.56A2.37,2.37,0,0,1,357,16.32Zm6-10c0,2.28-1.14,3.41-3.41,3.41s-3.41-1.13-3.41-3.41,1.14-3.41,3.41-3.41S362.93,4.06,362.93,6.33Zm0,15.11q0,3.28-3.41,3.28t-3.41-3.28q0-3.42,3.41-3.42T362.93,21.44Zm2.19-5.12c-1.7,0-2.55-.89-2.55-2.68a2.56,2.56,0,1,1,5.11,0C367.68,15.43,366.83,16.32,365.12,16.32Zm7.31-10c0,2.28-1.14,3.41-3.41,3.41s-3.41-1.13-3.41-3.41,1.14-3.41,3.41-3.41S372.43,4.06,372.43,6.33Zm0,15.11q0,3.28-3.41,3.28t-3.41-3.28Q365.61,18,369,18T372.43,21.44Zm0,8.76c0,2.28-1.14,3.41-3.41,3.41s-3.41-1.13-3.41-3.41,1.14-3.28,3.41-3.28S372.43,28,372.43,30.2Zm0,8.89c0,2.28-1.14,3.41-3.41,3.41s-3.41-1.13-3.41-3.41,1.14-3.41,3.41-3.41S372.43,36.82,372.43,39.09Zm0,8.9q0,3.28-3.41,3.28T365.61,48c0-2.28,1.14-3.41,3.41-3.41S372.43,45.71,372.43,48Zm0,8.76c0,2.28-1.14,3.41-3.41,3.41s-3.41-1.13-3.41-3.41,1.14-3.28,3.41-3.28S372.43,54.56,372.43,56.75Zm0,8.53q0,3.28-3.41,3.29t-3.41-3.29q0-3.41,3.41-3.41T372.43,65.28Zm0,8.4c0,2.2-1.14,3.29-3.41,3.29s-3.41-1.09-3.41-3.29,1.14-3.41,3.41-3.41S372.43,71.41,372.43,73.68Zm0,8.77c0,2.28-1.14,3.41-3.41,3.41s-3.41-1.13-3.41-3.41,1.14-3.29,3.41-3.29S372.43,80.26,372.43,82.45Zm0,8.89c0,2.28-1.14,3.41-3.41,3.41s-3.41-1.13-3.41-3.41,1.14-3.41,3.41-3.41S372.43,89.07,372.43,91.34Zm.85-75a2.37,2.37,0,0,1-2.68-2.68c0-1.7.9-2.56,2.68-2.56a2.26,2.26,0,0,1,2.56,2.56C375.84,15.43,375,16.32,373.28,16.32Zm7.68-10c0,2.28-1.14,3.41-3.41,3.41s-3.29-1.13-3.29-3.41,1.09-3.41,3.29-3.41S381,4.06,381,6.33Zm0,15.11q0,3.28-3.41,3.28c-2.2,0-3.29-1.09-3.29-3.28S375.35,18,377.55,18,381,19.16,381,21.44Zm0,8.76c0,2.28-1.14,3.41-3.41,3.41s-3.29-1.13-3.29-3.41,1.09-3.28,3.29-3.28S381,28,381,30.2Zm0,8.89c0,2.28-1.14,3.41-3.41,3.41s-3.29-1.13-3.29-3.41,1.09-3.41,3.29-3.41S381,36.82,381,39.09Zm0,8.9q0,3.28-3.41,3.28c-2.2,0-3.29-1.09-3.29-3.28s1.09-3.41,3.29-3.41S381,45.71,381,48Zm0,8.76c0,2.28-1.14,3.41-3.41,3.41s-3.29-1.13-3.29-3.41,1.09-3.28,3.29-3.28S381,54.56,381,56.75Zm0,8.53q0,3.28-3.41,3.29c-2.2,0-3.29-1.1-3.29-3.29s1.09-3.41,3.29-3.41S381,63,381,65.28Zm0,8.4c0,2.2-1.14,3.29-3.41,3.29s-3.29-1.09-3.29-3.29,1.09-3.41,3.29-3.41S381,71.41,381,73.68Zm0,8.77c0,2.28-1.14,3.41-3.41,3.41s-3.29-1.13-3.29-3.41,1.09-3.29,3.29-3.29S381,80.26,381,82.45Zm0,8.89c0,2.28-1.14,3.41-3.41,3.41s-3.29-1.13-3.29-3.41,1.09-3.41,3.29-3.41S381,89.07,381,91.34Zm.36-75c-1.7,0-2.56-.89-2.56-2.68a2.56,2.56,0,0,1,5.12,0C383.88,15.43,383,16.32,381.32,16.32Zm8.16-10c0,2.28-1.09,3.41-3.29,3.41s-3.41-1.13-3.41-3.41,1.14-3.41,3.41-3.41S389.48,4.06,389.48,6.33Zm0,15.11c0,2.19-1.09,3.28-3.29,3.28s-3.41-1.09-3.41-3.28S383.92,18,386.19,18,389.48,19.16,389.48,21.44Zm0,8.76c0,2.28-1.09,3.41-3.29,3.41s-3.41-1.13-3.41-3.41,1.14-3.28,3.41-3.28S389.48,28,389.48,30.2Zm0,8.89c0,2.28-1.09,3.41-3.29,3.41s-3.41-1.13-3.41-3.41,1.14-3.41,3.41-3.41S389.48,36.82,389.48,39.09Zm0,8.9c0,2.19-1.09,3.28-3.29,3.28s-3.41-1.09-3.41-3.28,1.14-3.41,3.41-3.41S389.48,45.71,389.48,48Zm0,8.76c0,2.28-1.09,3.41-3.29,3.41s-3.41-1.13-3.41-3.41,1.14-3.28,3.41-3.28S389.48,54.56,389.48,56.75Zm0,8.53c0,2.19-1.09,3.29-3.29,3.29s-3.41-1.1-3.41-3.29,1.14-3.41,3.41-3.41S389.48,63,389.48,65.28Zm0,8.4c0,2.2-1.09,3.29-3.29,3.29s-3.41-1.09-3.41-3.29,1.14-3.41,3.41-3.41S389.48,71.41,389.48,73.68Zm0,8.77c0,2.28-1.09,3.41-3.29,3.41s-3.41-1.13-3.41-3.41,1.14-3.29,3.41-3.29S389.48,80.26,389.48,82.45Zm0,8.89c0,2.28-1.09,3.41-3.29,3.41s-3.41-1.13-3.41-3.41,1.14-3.41,3.41-3.41S389.48,89.07,389.48,91.34Zm0-75a2.37,2.37,0,0,1-2.68-2.68c0-1.7.89-2.56,2.68-2.56A2.26,2.26,0,0,1,392,13.64C392,15.43,391.19,16.32,389.48,16.32Zm9.5-10c0,2.28-1.14,3.41-3.41,3.41s-3.29-1.13-3.29-3.41,1.1-3.41,3.29-3.41S399,4.06,399,6.33Zm0,15.11q0,3.28-3.41,3.28t-3.29-3.28q0-3.42,3.29-3.42T399,21.44Zm-1.46-5.12c-1.71,0-2.56-.89-2.56-2.68a2.26,2.26,0,0,1,2.56-2.56c1.78,0,2.68.86,2.68,2.56A2.37,2.37,0,0,1,397.52,16.32Zm11-10c0,2.28-1.14,3.41-3.41,3.41s-3.41-1.13-3.41-3.41,1.14-3.41,3.41-3.41S408.48,4.06,408.48,6.33Zm0,15.11q0,3.28-3.41,3.28t-3.41-3.28q0-3.42,3.41-3.42T408.48,21.44Zm-2.8-5.12A2.37,2.37,0,0,1,403,13.64c0-1.7.89-2.56,2.68-2.56a2.27,2.27,0,0,1,2.56,2.56C408.24,15.43,407.38,16.32,405.68,16.32Z"/><path class="b94300d8-1e52-4cc5-9fb6-7e5ef46d7bee" d="M421.15,49.45q0,3.28-3.29,3.28t-3.29-3.28c0-2.2,1.1-3.29,3.29-3.29S421.15,47.25,421.15,49.45Zm.6,8.28q0,3.29-3.28,3.29c-2.2,0-3.29-1.1-3.29-3.29s1.09-3.29,3.29-3.29S421.75,55.54,421.75,57.73Zm.13-16.32q0,3.29-3.29,3.29t-3.29-3.29q0-3.28,3.29-3.29T421.88,41.41ZM424,66q0,3.28-3.29,3.29T417.37,66q0-3.29,3.29-3.29T424,66Zm.24-33c0,2.2-1.1,3.29-3.29,3.29s-3.29-1.09-3.29-3.29,1.1-3.28,3.29-3.28S424.19,30.81,424.19,33Zm3.65,40.93q0,3.28-3.28,3.28c-2.2,0-3.29-1.09-3.29-3.28s1.09-3.29,3.29-3.29S427.84,71.73,427.84,73.93Zm.13-48.6q0,3.29-3.29,3.29t-3.29-3.29q0-3.28,3.29-3.29T428,25.33Zm1.46,24.36q0,3.29-3.29,3.29t-3.29-3.29q0-3.28,3.29-3.29T429.43,49.69Zm.73-8.4q0,3.28-3.29,3.29t-3.29-3.29c0-2.2,1.1-3.29,3.29-3.29S430.16,39.09,430.16,41.29Zm.48,16.56q0,3.28-3.28,3.29c-2.2,0-3.29-1.1-3.29-3.29s1.09-3.29,3.29-3.29S430.64,55.66,430.64,57.85Zm2.2,22.65c0,2.2-1.1,3.29-3.29,3.29s-3.29-1.09-3.29-3.29,1.1-3.29,3.29-3.29S432.84,78.31,432.84,80.5Zm0-61.87c0,2.2-1.1,3.29-3.29,3.29s-3.17-1.09-3.17-3.29,1.06-3.28,3.17-3.28S432.84,16.44,432.84,18.63ZM433,66.38q0,3.28-3.29,3.28t-3.29-3.28c0-2.2,1.1-3.29,3.29-3.29S433,64.18,433,66.38Zm0-33.5c0,2.2-1.06,3.29-3.17,3.29s-3.29-1.09-3.29-3.29,1.1-3.29,3.29-3.29S433,30.69,433,32.88Zm4.26,40.19c0,2.2-1.1,3.29-3.29,3.29s-3.29-1.09-3.29-3.29,1.1-3.28,3.29-3.28S437.22,70.88,437.22,73.07Zm.24-23.5q0,3.28-3.28,3.29c-2.2,0-3.29-1.1-3.29-3.29s1.09-3.29,3.29-3.29S437.46,47.38,437.46,49.57Zm.13-23.38q0,3.28-3.29,3.28t-3.17-3.28c0-2.2,1.06-3.29,3.17-3.29S437.59,24,437.59,26.19Zm.61,30.93q0,3.29-3.29,3.29c-2.2,0-3.29-1.1-3.29-3.29s1.09-3.29,3.29-3.29S438.2,54.93,438.2,57.12Zm.36-15.83q0,3.28-3.29,3.29T432,41.29c0-2.2,1.1-3.29,3.29-3.29S438.56,39.09,438.56,41.29ZM438.93,86c0,2.2-1.1,3.29-3.29,3.29s-3.29-1.09-3.29-3.29,1.1-3.16,3.29-3.16S438.93,83.87,438.93,86ZM439.05,13q0,3.29-3.29,3.29T432.47,13q0-3.28,3.29-3.29T439.05,13ZM441,65q0,3.28-3.29,3.28T434.42,65c0-2.2,1.1-3.29,3.29-3.29S441,62.84,441,65Zm1-31.55c0,2.19-1.09,3.29-3.29,3.29s-3.29-1.1-3.29-3.29,1.1-3.29,3.29-3.29S442,31.3,442,33.49ZM443.31,20c0,2.2-1.1,3.29-3.29,3.29s-3.29-1.09-3.29-3.29,1.1-3.28,3.29-3.28S443.31,17.78,443.31,20Zm0,59.19c0,2.2-1.1,3.29-3.29,3.29s-3.29-1.09-3.29-3.29,1.1-3.28,3.29-3.28S443.31,77,443.31,79.16ZM446,90.49q0,3.29-3.29,3.29t-3.29-3.29q0-3.28,3.29-3.29T446,90.49Zm.12-81.84c0,2.19-1.09,3.29-3.29,3.29s-3.28-1.1-3.28-3.29,1.09-3.29,3.28-3.29S446.11,6.46,446.11,8.65Zm.37,62.6q0,3.28-3.29,3.29t-3.29-3.29c0-2.2,1.1-3.29,3.29-3.29S446.48,69.05,446.48,71.25Zm.85-44q0,3.28-3.29,3.29t-3.29-3.29Q440.75,24,444,24T447.33,27.28ZM450,15.83q0,3.28-3.29,3.29t-3.29-3.29q0-3.28,3.29-3.29T450,15.83Zm.24,67.72c0,2.19-1.09,3.29-3.29,3.29s-3.28-1.1-3.28-3.29,1.09-3.29,3.28-3.29S450.25,81.36,450.25,83.55Zm2.93-7.67q0,3.28-3.29,3.28t-3.29-3.28c0-2.2,1.1-3.29,3.29-3.29S453.18,73.68,453.18,75.88Zm.48-70.28q0,3.29-3.16,3.29c-2.2,0-3.29-1.1-3.29-3.29s1.09-3.29,3.29-3.29S453.66,3.41,453.66,5.6Zm.13,87.93c0,2.2-1.1,3.29-3.29,3.29s-3.29-1.09-3.29-3.29,1.09-3.28,3.29-3.28S453.79,91.34,453.79,93.53Zm.85-70.88c0,2.2-1.1,3.29-3.29,3.29s-3.29-1.09-3.29-3.29,1.1-3.29,3.29-3.29S454.64,20.46,454.64,22.65ZM457.56,13q0,3.29-3.29,3.29T451,13q0-3.28,3.29-3.29T457.56,13Zm1,73.2q0,3.28-3.29,3.29c-2.2,0-3.29-1.1-3.29-3.29s1.09-3.29,3.29-3.29S458.54,84,458.54,86.23Zm2.43-7.8c0,2.19-1.09,3.29-3.29,3.29s-3.29-1.1-3.29-3.29,1.1-3.29,3.29-3.29S461,76.24,461,78.43Zm1.1,16.81q0,3.29-3.29,3.29t-3.29-3.29q0-3.28,3.29-3.29T462.07,95.24ZM462.43,4c0,2.19-1.09,3.29-3.29,3.29s-3.28-1.1-3.28-3.29S457,.73,459.14.73,462.43,1.83,462.43,4ZM463,20.34c0,2.19-1.09,3.29-3.29,3.29s-3.29-1.1-3.29-3.29,1.1-3.29,3.29-3.29S463,18.15,463,20.34ZM466,12.06q0,3.28-3.28,3.29c-2.2,0-3.29-1.1-3.29-3.29s1.09-3.29,3.29-3.29S466,9.86,466,12.06Zm.49,75c0,2.19-1.06,3.29-3.16,3.29S460,89.27,460,87.08s1.09-3.29,3.29-3.29S466.45,84.89,466.45,87.08Zm2.93-8.28q0,3.28-3.29,3.29c-2.2,0-3.29-1.1-3.29-3.29s1.09-3.29,3.29-3.29S469.38,76.61,469.38,78.8Zm.6,16.32q0,3.28-3.28,3.29c-2.2,0-3.29-1.1-3.29-3.29s1.09-3.29,3.29-3.29S470,92.93,470,95.12Zm.37-91.22q0,3.29-3.29,3.29T463.77,3.9q0-3.28,3.29-3.29T470.35,3.9Zm1.1,16.68q0,3.29-3.29,3.29c-2.2,0-3.29-1.1-3.29-3.29s1.09-3.29,3.29-3.29S471.45,18.39,471.45,20.58Zm2.43-7.79q0,3.29-3.17,3.29t-3.28-3.29q0-3.28,3.28-3.29T473.88,12.79Zm1,73.32q0,3.28-3.29,3.28t-3.29-3.28c0-2.2,1.1-3.29,3.29-3.29S474.86,83.91,474.86,86.11Zm3-9.63c0,2.2-1.1,3.29-3.29,3.29s-3.29-1.09-3.29-3.29,1.1-3.28,3.29-3.28S477.9,74.29,477.9,76.48Zm.73-70.88q0,3.29-3.29,3.29T472.05,5.6q0-3.28,3.29-3.29T478.63,5.6Zm.12,87.81c0,2.19-1.09,3.29-3.29,3.29s-3.28-1.1-3.28-3.29,1.09-3.29,3.28-3.29S478.75,91.22,478.75,93.41Zm.49-70.15q0,3.28-3.29,3.29t-3.29-3.29Q472.66,20,476,20T479.24,23.26Zm2.92-7.67c0,2.19-1.09,3.29-3.29,3.29s-3.28-1.1-3.28-3.29,1.09-3.29,3.28-3.29S482.16,13.4,482.16,15.59Zm.25,67.71c0,2.2-1.1,3.29-3.29,3.29S476,85.5,476,83.3,477,80,479.12,80,482.41,81.11,482.41,83.3Zm2.68-11.44q0,3.28-3.29,3.28c-2.2,0-3.29-1.09-3.29-3.28s1.09-3.29,3.29-3.29S485.09,69.66,485.09,71.86Zm.85-44q0,3.28-3.29,3.29t-3.29-3.29q0-3.29,3.29-3.29T485.94,27.89Zm.48-19.24q0,3.28-3.28,3.29c-2.2,0-3.29-1.1-3.29-3.29s1.09-3.29,3.29-3.29S486.42,6.46,486.42,8.65Zm-.12,81.84q0,3.29-3.16,3.29c-2.2,0-3.29-1.1-3.29-3.29s1.09-3.29,3.29-3.29S486.3,88.3,486.3,90.49ZM489.1,20c0,2.2-1.09,3.29-3.28,3.29s-3.29-1.09-3.29-3.29,1.09-3.28,3.29-3.28S489.1,17.78,489.1,20Zm0,59.07q0,3.28-3.28,3.29c-2.2,0-3.29-1.1-3.29-3.29s1.09-3.29,3.29-3.29S489.1,76.85,489.1,79Zm1.34-13.4c0,2.2-1.09,3.29-3.28,3.29s-3.29-1.09-3.29-3.29,1.09-3.28,3.29-3.28S490.44,63.45,490.44,65.64Zm1-31.54q0,3.28-3.29,3.29t-3.29-3.29q0-3.29,3.29-3.29T491.42,34.1Zm1.95,52q0,3.28-3.29,3.28t-3.29-3.28c0-2.2,1.1-3.29,3.29-3.29S493.37,83.91,493.37,86.11ZM493.49,13q0,3.29-3.29,3.29T486.91,13q0-3.28,3.29-3.29T493.49,13Zm.36,44.7q0,3.29-3.28,3.29c-2.2,0-3.29-1.1-3.29-3.29s1.09-3.17,3.29-3.17S493.85,55.62,493.85,57.73ZM494.22,42q0,3.28-3.29,3.29T487.64,42q0-3.29,3.29-3.29T494.22,42ZM494.83,73q0,3.28-3.29,3.29T488.25,73q0-3.28,3.29-3.29T494.83,73ZM495,49.57q0,3.28-3.29,3.29t-3.29-3.29q0-3.28,3.29-3.29T495,49.57Zm.24-23.51c0,2.2-1.09,3.29-3.28,3.29s-3.29-1.09-3.29-3.29,1.09-3.29,3.29-3.29S495.19,23.87,495.19,26.06Zm4.27,6.7q0,3.29-3.29,3.29t-3.29-3.29q0-3.28,3.29-3.29T499.46,32.76Zm0,33.37q0,3.28-3.29,3.29t-3.29-3.29q0-3.28,3.29-3.29T499.46,66.13Zm.12-47.5c0,2.2-1.1,3.29-3.29,3.29S493,20.83,493,18.63s1.1-3.28,3.29-3.28S499.58,16.44,499.58,18.63Zm0,61.75q0,3.28-3.29,3.29T493,80.38q0-3.28,3.29-3.29T499.58,80.38Zm2.19-39.21q0,3.28-3.29,3.28t-3.29-3.28c0-2.2,1.1-3.29,3.29-3.29S501.77,39,501.77,41.17Zm.49,16.56Q502.26,61,499,61t-3.29-3.29q0-3.28,3.29-3.29T502.26,57.73Zm.73-8.28q0,3.28-3.29,3.28t-3.29-3.28c0-2.2,1.1-3.29,3.29-3.29S503,47.25,503,49.45Zm1.46,24.35c0,2.2-1.1,3.29-3.29,3.29s-3.29-1.09-3.29-3.29,1.1-3.28,3.29-3.28S504.45,71.61,504.45,73.8Zm.12-48.59c0,2.19-1.09,3.29-3.29,3.29S498,27.4,498,25.21s1.09-3.29,3.28-3.29S504.57,23,504.57,25.21Zm3.65,40.92q0,3.28-3.28,3.29c-2.2,0-3.29-1.1-3.29-3.29s1.09-3.29,3.29-3.29S508.22,63.94,508.22,66.13Zm.25-33q0,3.28-3.29,3.29t-3.29-3.29c0-2.2,1.1-3.29,3.29-3.29S508.47,30.93,508.47,33.13Zm2.07,24.6q0,3.29-3.29,3.29T504,57.73q0-3.28,3.29-3.29T510.54,57.73Zm.12-16.32q0,3.29-3.29,3.29t-3.29-3.29q0-3.28,3.29-3.29T510.66,41.41Zm.61,8.28Q511.27,53,508,53t-3.29-3.29q0-3.28,3.29-3.29T511.27,49.69Z"/><path class="b94300d8-1e52-4cc5-9fb6-7e5ef46d7bee" d="M521.38,10C519.1,10,518,8.85,518,6.58s1.13-3.29,3.41-3.29,3.41,1.09,3.41,3.29S523.65,10,521.38,10Zm0,8.52c-2.28,0-3.41-1.13-3.41-3.41s1.13-3.41,3.41-3.41,3.41,1.14,3.41,3.41S523.65,18.51,521.38,18.51Zm0,8.53C519.1,27,518,25.9,518,23.63s1.13-3.41,3.41-3.41,3.41,1.13,3.41,3.41S523.65,27,521.38,27Zm0,8.4C519.1,35.44,518,34.3,518,32s1.13-3.41,3.41-3.41,3.41,1.14,3.41,3.41S523.65,35.44,521.38,35.44Zm0,8.53c-2.28,0-3.41-1.14-3.41-3.41s1.13-3.41,3.41-3.41,3.41,1.13,3.41,3.41S523.65,44,521.38,44Zm0,8.4c-2.28,0-3.41-1.14-3.41-3.41s1.13-3.29,3.41-3.29,3.41,1.1,3.41,3.29S523.65,52.37,521.38,52.37Zm0,8.53c-2.28,0-3.41-1.14-3.41-3.42s1.13-3.41,3.41-3.41,3.41,1.14,3.41,3.41S523.65,60.9,521.38,60.9Zm0,8.52c-2.28,0-3.41-1.14-3.41-3.41s1.13-3.41,3.41-3.41,3.41,1.14,3.41,3.41S523.65,69.42,521.38,69.42Zm0,8.4c-2.28,0-3.41-1.13-3.41-3.41S519.1,71,521.38,71s3.41,1.14,3.41,3.41S523.65,77.82,521.38,77.82Zm0,8.53c-2.28,0-3.41-1.14-3.41-3.41s1.13-3.41,3.41-3.41,3.41,1.14,3.41,3.41S523.65,86.35,521.38,86.35Zm0,8.4c-2.28,0-3.41-1.09-3.41-3.29s1.13-3.41,3.41-3.41,3.41,1.14,3.41,3.41S523.65,94.75,521.38,94.75ZM530,10c-2.28,0-3.41-1.14-3.41-3.41s1.13-3.29,3.41-3.29,3.4,1.09,3.4,3.29S532.3,10,530,10Zm0,8.52c-2.28,0-3.41-1.13-3.41-3.41s1.13-3.41,3.41-3.41,3.4,1.14,3.4,3.41S532.3,18.51,530,18.51ZM530,27c-2.28,0-3.41-1.14-3.41-3.41s1.13-3.41,3.41-3.41,3.4,1.13,3.4,3.41S532.3,27,530,27Zm0,8.4c-2.28,0-3.41-1.14-3.41-3.41s1.13-3.41,3.41-3.41,3.4,1.14,3.4,3.41S532.3,35.44,530,35.44ZM530,44c-2.28,0-3.41-1.14-3.41-3.41s1.13-3.41,3.41-3.41,3.4,1.13,3.4,3.41S532.3,44,530,44Zm0,8.4c-2.28,0-3.41-1.14-3.41-3.41s1.13-3.29,3.41-3.29,3.4,1.1,3.4,3.29S532.3,52.37,530,52.37Zm0,8.53c-2.28,0-3.41-1.14-3.41-3.42s1.13-3.41,3.41-3.41,3.4,1.14,3.4,3.41S532.3,60.9,530,60.9Zm0,8.52c-2.28,0-3.41-1.14-3.41-3.41s1.13-3.41,3.41-3.41,3.4,1.14,3.4,3.41S532.3,69.42,530,69.42Zm0,8.4c-2.28,0-3.41-1.13-3.41-3.41S527.75,71,530,71s3.4,1.14,3.4,3.41S532.3,77.82,530,77.82Zm0,8.53c-2.28,0-3.41-1.14-3.41-3.41s1.13-3.41,3.41-3.41,3.4,1.14,3.4,3.41S532.3,86.35,530,86.35Zm0,8.4c-2.28,0-3.41-1.09-3.41-3.29s1.13-3.41,3.41-3.41,3.4,1.14,3.4,3.41S532.3,94.75,530,94.75ZM538.67,10q-3.4,0-3.41-3.41c0-2.2,1.14-3.29,3.41-3.29s3.41,1.09,3.41,3.29S540.94,10,538.67,10Zm0,8.52c-2.27,0-3.41-1.13-3.41-3.41s1.14-3.41,3.41-3.41,3.41,1.14,3.41,3.41S540.94,18.51,538.67,18.51Zm0,8.53q-3.4,0-3.41-3.41c0-2.28,1.14-3.41,3.41-3.41s3.41,1.13,3.41,3.41S540.94,27,538.67,27Zm0,8.4q-3.4,0-3.41-3.41t3.41-3.41q3.41,0,3.41,3.41T538.67,35.44Zm0,8.53q-3.4,0-3.41-3.41c0-2.28,1.14-3.41,3.41-3.41s3.41,1.13,3.41,3.41S540.94,44,538.67,44Zm0,8.4q-3.4,0-3.41-3.41t3.41-3.29q3.41,0,3.41,3.29T538.67,52.37Zm0,8.53q-3.4,0-3.41-3.42t3.41-3.41q3.41,0,3.41,3.41T538.67,60.9Zm0,8.52q-3.4,0-3.41-3.41t3.41-3.41q3.41,0,3.41,3.41T538.67,69.42Zm0,8.4c-2.27,0-3.41-1.13-3.41-3.41S536.4,71,538.67,71s3.41,1.14,3.41,3.41S540.94,77.82,538.67,77.82Zm0,8.53q-3.4,0-3.41-3.41t3.41-3.41q3.41,0,3.41,3.41T538.67,86.35Zm0,8.4c-2.27,0-3.41-1.09-3.41-3.29s1.14-3.41,3.41-3.41,3.41,1.14,3.41,3.41S540.94,94.75,538.67,94.75Zm4.75-81.6a1.07,1.07,0,0,1-1.22-1.21c0-.9.41-1.34,1.22-1.34s1.22.44,1.22,1.34A1.07,1.07,0,0,1,543.42,13.15Zm.85,50.3a1.4,1.4,0,0,1-1.58-1.58c0-1,.53-1.46,1.58-1.46s1.59.49,1.59,1.46A1.4,1.4,0,0,1,544.27,63.45ZM547.32,10c-2.28,0-3.41-1.14-3.41-3.41s1.13-3.29,3.41-3.29,3.41,1.09,3.41,3.29S549.59,10,547.32,10Zm0,10.35c-2.28,0-3.41-1.14-3.41-3.41s1.13-3.41,3.41-3.41,3.41,1.14,3.41,3.41S549.59,20.34,547.32,20.34Zm-.24,30.08c-2.12,0-3.17-1.05-3.17-3.17s1.05-3.16,3.17-3.16,3.16,1,3.16,3.16S549.19,50.42,547.08,50.42Zm0,8.4c-2.12,0-3.17-1-3.17-3s1.05-3.17,3.17-3.17,3.16,1.06,3.16,3.17S549.19,58.82,547.08,58.82Zm4.38,7.43c-2.27,0-3.41-1.13-3.41-3.41s1.14-3.41,3.41-3.41,3.41,1.14,3.41,3.41S553.73,66.25,551.46,66.25Zm-1.1-53c-1,0-1.46-.44-1.46-1.33a1.3,1.3,0,0,1,1.46-1.47c.9,0,1.34.49,1.34,1.47A1.18,1.18,0,0,1,550.36,13.27Zm5.24,36.18q-3.4,0-3.41-3.41c0-2.28,1.14-3.41,3.41-3.41s3.29,1.13,3.29,3.41S557.79,49.45,555.6,49.45Zm.12,24q-3.4,0-3.41-3.41t3.41-3.41q3.4,0,3.41,3.41T555.72,73.44ZM556,21.8c-2.28,0-3.41-1.14-3.41-3.41S553.69,15,556,15s3.41,1.14,3.41,3.41S558.24,21.8,556,21.8Zm0-12.3c-2.2,0-3.29-1.1-3.29-3.29s1.09-3.29,3.29-3.29,3.28,1.1,3.28,3.29S558.16,9.5,556,9.5Zm.12,48.23q-3.17,0-3.17-3c0-2,1.06-3,3.17-3a2.69,2.69,0,0,1,3,3Q559.13,57.73,556.09,57.73Zm.12-43.85c-1,0-1.46-.52-1.46-1.58s.49-1.58,1.46-1.58a1.4,1.4,0,0,1,1.58,1.58A1.4,1.4,0,0,1,556.21,13.88Zm3.41,51.28q-3.17,0-3.17-3T559.62,59q3,0,3,3.16T559.62,65.16Zm.49,15.34c-2.28,0-3.41-1.13-3.41-3.41s1.13-3.41,3.41-3.41,3.41,1.14,3.41,3.41S562.38,80.5,560.11,80.5Zm2.68-36.41c-2.28,0-3.41-1.14-3.41-3.41s1.13-3.41,3.41-3.41,3.41,1.14,3.41,3.41S565.06,44.09,562.79,44.09Zm.12-16.69c-2.19,0-3.29-1.13-3.29-3.41s1.1-3.41,3.29-3.41,3.41,1.14,3.41,3.41S565.18,27.4,562.91,27.4Zm1,26.07q-3.4,0-3.41-3.41c0-2.28,1.14-3.41,3.41-3.41s3.29,1.13,3.29,3.41S566.07,53.47,563.88,53.47Zm-.61-37.15a2.26,2.26,0,0,1-2.55-2.56,2.56,2.56,0,1,1,5.11,0A2.26,2.26,0,0,1,563.27,16.32Zm1.22,71.37q-3.4,0-3.41-3.41t3.41-3.41q3.28,0,3.29,3.41T564.49,87.69Zm.12-77.95q-3.17,0-3.16-3.16t3.16-3.05q3.17,0,3.17,3.05T564.61,9.74ZM565,72.59q-3.16,0-3.17-3.17t3.17-3q3,0,3,3T565,72.59Zm.48-37c-2.27,0-3.4-1.13-3.4-3.41s1.13-3.29,3.4-3.29,3.42,1.1,3.42,3.29S567.74,35.56,565.46,35.56Zm.86,25.34q-3,0-3.05-3.17a2.7,2.7,0,0,1,3.05-3q3.16,0,3.16,3T566.32,60.9Zm2.43,33.85c-2.27,0-3.41-1.09-3.41-3.29s1.14-3.41,3.41-3.41,3.41,1.14,3.41,3.41S571,94.75,568.75,94.75ZM569.85,22q-3.4,0-3.41-3.28c0-2.28,1.14-3.41,3.41-3.41s3.41,1.13,3.41,3.41S572.12,22,569.85,22Zm.49,57.85c-2.12,0-3.17-1-3.17-3s1.05-3.17,3.17-3.17,3,1.06,3,3.17S572.37,79.89,570.34,79.89Zm.73-33.49c-2.28,0-3.41-1.13-3.41-3.41s1.13-3.41,3.41-3.41,3.41,1.14,3.41,3.41S573.34,46.4,571.07,46.4Zm.24,21.32q-3.16,0-3.17-3.17t3.17-3.17q3.16,0,3.17,3.17T571.31,67.72Zm1-55.3q-3,0-3-3t3-3.17q3.16,0,3.16,3.17T572.29,12.42Zm.24,42.87q-3,0-3-3t3-3.17q3,0,3,3.17T572.53,55.29Zm1.22-25.57c-2.28,0-3.41-1.14-3.41-3.41s1.13-3.41,3.41-3.41,3.41,1.13,3.41,3.41S576,29.72,573.75,29.72Zm.24,8.89q-3.4,0-3.41-3.41T574,31.79q3.28,0,3.29,3.41T574,38.61Zm1.58,48.71q-3,0-3-3.16t3-3q3.16,0,3.17,3T575.57,87.32Zm.61-12.91q-3.16,0-3.16-3.16c0-2.2,1.05-3.29,3.16-3.29s3.29,1.09,3.29,3.29S578.38,74.41,576.18,74.41Zm.49,20.1a2.15,2.15,0,0,1-2.44-2.44c0-1.7.81-2.55,2.44-2.55s2.44.85,2.44,2.55A2.16,2.16,0,0,1,576.67,94.51Zm1.83-76.36a2.7,2.7,0,0,1-3-3q0-3,3-3t3.16,3Q581.66,18.15,578.5,18.15Zm.24,31.54q-3.16,0-3.17-3t3.17-3a2.7,2.7,0,0,1,3,3Q581.79,49.7,578.74,49.69Zm2.44,31.54c-2.2,0-3.29-1.09-3.29-3.28s1.09-3.29,3.29-3.29,3.28,1.09,3.28,3.29S583.37,81.23,581.18,81.23Zm1.09-55.41c-2.11,0-3.16-1-3.16-3.05s1-3.16,3.16-3.16,3.05,1.05,3.05,3.16S584.3,25.82,582.27,25.82Zm.12,16.44q-3,0-3-3t3-3q3.17,0,3.17,3T582.39,42.26Zm.86-8.16c-2,0-3-1.05-3-3.17s1-3,3-3a2.69,2.69,0,0,1,3,3C586.29,33.05,585.28,34.1,583.25,34.1Zm.36,60.41c-1.7,0-2.56-.81-2.56-2.44a2.26,2.26,0,0,1,2.56-2.55c1.63,0,2.44.85,2.44,2.55A2.15,2.15,0,0,1,583.61,94.51Zm2.56-6.46c-2.27,0-3.41-1.13-3.41-3.41s1.14-3.28,3.41-3.28,3.29,1.09,3.29,3.28S588.36,88.05,586.17,88.05Zm4.87,6.7c-2.27,0-3.41-1.09-3.41-3.29s1.14-3.41,3.41-3.41,3.41,1.14,3.41,3.41S593.31,94.75,591,94.75Z"/><path class="feb0bac3-5e40-4cca-9847-7c1d2f616118" d="M63.51,127a10.36,10.36,0,0,1,3.24-7.62,10.93,10.93,0,1,1,0,15.49A10.79,10.79,0,0,1,63.51,127Zm3.81.06a7.15,7.15,0,0,0,2.1,5.22,6.88,6.88,0,0,0,5.1,2.15,6.74,6.74,0,0,0,5-2.15,7.41,7.41,0,0,0,0-10.32,6.77,6.77,0,0,0-5-2.14,6.84,6.84,0,0,0-5,2.14A7,7,0,0,0,67.32,127.07Z"/><path class="feb0bac3-5e40-4cca-9847-7c1d2f616118" d="M89,137.68V116.59h4.54l8.62,15.06V116.59h3.81v21.09H101.7l-8.94-15.5v15.5Z"/><path class="feb0bac3-5e40-4cca-9847-7c1d2f616118" d="M112.69,137.68V120.24h-4v-3.65h11.8v3.65h-4v17.44Z"/><path class="feb0bac3-5e40-4cca-9847-7c1d2f616118" d="M122.29,127a10.35,10.35,0,0,1,3.23-7.62,10.93,10.93,0,1,1,0,15.49A10.78,10.78,0,0,1,122.29,127Zm3.81.06a7.14,7.14,0,0,0,2.09,5.22,6.88,6.88,0,0,0,5.1,2.15,6.73,6.73,0,0,0,5-2.15,7.41,7.41,0,0,0,0-10.32,6.75,6.75,0,0,0-5-2.14,6.84,6.84,0,0,0-5,2.14A7,7,0,0,0,126.1,127.07Z"/><path class="feb0bac3-5e40-4cca-9847-7c1d2f616118" d="M147.72,137.68V116.59h3.81V134h6.52v3.65Z"/><path class="feb0bac3-5e40-4cca-9847-7c1d2f616118" d="M160.06,127a10.36,10.36,0,0,1,3.24-7.62,10.93,10.93,0,1,1-.05,15.49A10.75,10.75,0,0,1,160.06,127Zm3.81.06a7.15,7.15,0,0,0,2.1,5.22,6.85,6.85,0,0,0,5.09,2.15,6.75,6.75,0,0,0,5-2.15,7.44,7.44,0,0,0,0-10.32,6.77,6.77,0,0,0-5.05-2.14A6.85,6.85,0,0,0,166,122,7,7,0,0,0,163.87,127.07Z"/><path class="feb0bac3-5e40-4cca-9847-7c1d2f616118" d="M184.55,127.13a10.52,10.52,0,0,1,3.26-7.73,10.78,10.78,0,0,1,7.88-3.22,11.39,11.39,0,0,1,6.3,1.89,9.36,9.36,0,0,1,3.94,4.69h-4.66a6.5,6.5,0,0,0-2.44-2.16,7,7,0,0,0-3.23-.77,6.74,6.74,0,0,0-5.19,2.17,7.33,7.33,0,0,0-1.48,2.41,7.47,7.47,0,0,0-.57,2.78,6.88,6.88,0,0,0,2.16,5.15,7.29,7.29,0,0,0,5.3,2.1,6.79,6.79,0,0,0,3.67-1,7.15,7.15,0,0,0,2.56-2.81h-8.84v-3.65H207a10.73,10.73,0,0,1-6,9.9,11.29,11.29,0,0,1-5.16,1.25,11,11,0,0,1-8-3.2A10.42,10.42,0,0,1,184.55,127.13Z"/><path class="feb0bac3-5e40-4cca-9847-7c1d2f616118" d="M215.18,137.68V129.9l-6.92-13.31h4.28l4.61,9.68,4.52-9.68H226l-7,13.31v7.78Z"/><path class="feb0bac3-5e40-4cca-9847-7c1d2f616118" d="M236.65,137.68V116.59H242l5.64,16,5.58-16h5.34v21.09h-3.81V121.87l-5.47,15.81H246l-5.57-16.1v16.1Z"/><path class="feb0bac3-5e40-4cca-9847-7c1d2f616118" d="M261.08,137.68l8.78-21.09h3.05l8.85,21.09h-4.31l-2.22-5.45h-7.54l-2.3,5.45Zm8.06-9.1h4.53l-2.27-6.48Z"/><path class="feb0bac3-5e40-4cca-9847-7c1d2f616118" d="M284.15,137.68V116.59h5.26a18.39,18.39,0,0,1,3.27.2,6.12,6.12,0,0,1,4.79,6.19,7.06,7.06,0,0,1-.75,3.22,6.41,6.41,0,0,1-2,2.41,4.93,4.93,0,0,1-1.92.82,21.07,21.07,0,0,1-3.45.19H288v8.06ZM288,126h1.27a8.06,8.06,0,0,0,2.62-.32,2.64,2.64,0,0,0,1.3-1,2.78,2.78,0,0,0,.51-1.62,2.63,2.63,0,0,0-.49-1.56,2.68,2.68,0,0,0-1.32-1,8.53,8.53,0,0,0-2.47-.25H288Z"/><path class="feb0bac3-5e40-4cca-9847-7c1d2f616118" d="M300.61,137.68V116.59h5.26a18.31,18.31,0,0,1,3.27.2,6.12,6.12,0,0,1,4.79,6.19,7.06,7.06,0,0,1-.75,3.22,6.47,6.47,0,0,1-2,2.41,5,5,0,0,1-1.93.82,21,21,0,0,1-3.45.19h-1.35v8.06ZM304.42,126h1.27a8.13,8.13,0,0,0,2.63-.32,2.69,2.69,0,0,0,1.3-1,2.84,2.84,0,0,0,.5-1.62,2.56,2.56,0,0,0-.49-1.56,2.65,2.65,0,0,0-1.31-1,8.58,8.58,0,0,0-2.47-.25h-1.43Z"/><path class="feb0bac3-5e40-4cca-9847-7c1d2f616118" d="M317.08,137.68V116.59h3.81v21.09Z"/><path class="feb0bac3-5e40-4cca-9847-7c1d2f616118" d="M325.33,137.68V116.59h4.54l8.61,15.06V116.59h3.81v21.09h-4.21l-8.94-15.5v15.5Z"/><path class="feb0bac3-5e40-4cca-9847-7c1d2f616118" d="M345.88,127.13a10.52,10.52,0,0,1,3.26-7.73,10.79,10.79,0,0,1,7.89-3.22,11.39,11.39,0,0,1,6.29,1.89,9.36,9.36,0,0,1,3.94,4.69H362.6a6.5,6.5,0,0,0-2.44-2.16,7,7,0,0,0-3.23-.77,6.74,6.74,0,0,0-5.19,2.17,8.17,8.17,0,0,0-2.05,5.19,6.88,6.88,0,0,0,2.16,5.15,7.3,7.3,0,0,0,5.3,2.1,6.79,6.79,0,0,0,3.67-1,7.08,7.08,0,0,0,2.56-2.81h-8.84v-3.65H368.3a10.76,10.76,0,0,1-6,9.9,11.23,11.23,0,0,1-5.16,1.25,11,11,0,0,1-8-3.2A10.42,10.42,0,0,1,345.88,127.13Z"/><path class="feb0bac3-5e40-4cca-9847-7c1d2f616118" d="M384.54,137.68l-6-21.09h3.81l3.87,14.73,3.65-14.73h2.88l3.59,14.72,3.51-14.72h3.81l-6,21.09h-3l-3.47-14.1-3.56,14.1Z"/><path class="feb0bac3-5e40-4cca-9847-7c1d2f616118" d="M405.88,127a10.36,10.36,0,0,1,3.24-7.62,10.93,10.93,0,1,1-.05,15.49A10.75,10.75,0,0,1,405.88,127Zm3.81.06a7.15,7.15,0,0,0,2.1,5.22,6.85,6.85,0,0,0,5.09,2.15,6.75,6.75,0,0,0,5-2.15,7.44,7.44,0,0,0,0-10.32,6.77,6.77,0,0,0-5-2.14A6.85,6.85,0,0,0,411.8,122,7,7,0,0,0,409.69,127.07Z"/><path class="feb0bac3-5e40-4cca-9847-7c1d2f616118" d="M431.32,137.68V116.59h6.38a7.78,7.78,0,0,1,5.32,1.6,6.29,6.29,0,0,1,2.21,4.91,7.7,7.7,0,0,1-.59,2.93,6.38,6.38,0,0,1-1.59,2.32,7.37,7.37,0,0,1-3.27,1.59l5.64,7.74H440.7l-5.58-8v8Zm3.8-11h2.5a4.14,4.14,0,0,0,2.79-.87,3,3,0,0,0,1-2.37,2.87,2.87,0,0,0-1-2.32,4.13,4.13,0,0,0-2.73-.86h-2.54Z"/><path class="feb0bac3-5e40-4cca-9847-7c1d2f616118" d="M448.85,137.68V116.59h3.81v9.19l6.67-9.19h4.6l-8,10.35,8,10.74h-4.6l-6.67-9.32v9.32Z"/><path class="feb0bac3-5e40-4cca-9847-7c1d2f616118" d="M466.23,137.68V116.59H477v3.65H470v5.13h6.61V129H470v8.66Z"/><path class="feb0bac3-5e40-4cca-9847-7c1d2f616118" d="M480.17,137.68V116.59H484V134h6.52v3.65Z"/><path class="feb0bac3-5e40-4cca-9847-7c1d2f616118" d="M492.51,127a10.36,10.36,0,0,1,3.24-7.62,10.93,10.93,0,1,1-.05,15.49A10.75,10.75,0,0,1,492.51,127Zm3.81.06a7.15,7.15,0,0,0,2.1,5.22,6.87,6.87,0,0,0,5.09,2.15,6.75,6.75,0,0,0,5-2.15,7.44,7.44,0,0,0,0-10.32,6.77,6.77,0,0,0-5-2.14,6.85,6.85,0,0,0-5.05,2.14A7,7,0,0,0,496.32,127.07Z"/><path class="feb0bac3-5e40-4cca-9847-7c1d2f616118" d="M522.36,137.68l-6-21.09h3.81l3.87,14.73,3.66-14.73h2.88l3.58,14.72,3.51-14.72h3.81l-6,21.09h-3l-3.46-14.1-3.56,14.1Z"/></svg>